<?xml version="1.0" encoding="UTF-8"?>
<svg xmlns="http://www.w3.org/2000/svg" xmlns:xlink="http://www.w3.org/1999/xlink" width="20pt" height="20pt" viewBox="0 0 20 20" version="1.1">
<g id="surface1">
<path style=" stroke:none;fill-rule:nonzero;fill:rgb(35.686275%,61.960784%,83.921569%);fill-opacity:1;" d="M 9.921875 19.28125 C 10.527344 19.28125 11.039062 18.863281 11.183594 18.296875 C 10.328125 17.558594 9.789062 16.46875 9.789062 15.253906 C 9.789062 14.015625 10.347656 12.910156 11.222656 12.171875 L 11.222656 7.050781 C 11.222656 6.335938 10.640625 5.75 9.921875 5.75 L 1.300781 5.75 C 0.582031 5.75 0 6.335938 0 7.050781 L 0 17.980469 C 0 18.699219 0.582031 19.28125 1.300781 19.28125 "/>
<path style=" stroke:none;fill-rule:nonzero;fill:rgb(29.803922%,51.372549%,70.196078%);fill-opacity:1;" d="M 9.921875 5.75 L 8.957031 5.75 C 9.675781 5.75 10.257812 6.335938 10.257812 7.050781 L 10.257812 11.515625 C 10.257812 11.71875 10.183594 11.914062 10.054688 12.070312 C 9.65625 12.539062 9.347656 13.082031 9.148438 13.675781 C 8.941406 14.160156 8.824219 14.691406 8.824219 15.253906 C 8.824219 15.8125 8.941406 16.347656 9.148438 16.835938 C 9.152344 16.839844 9.152344 16.84375 9.152344 16.847656 C 9.34375 17.40625 8.9375 17.988281 8.34375 17.988281 L 1.300781 17.988281 C 0.582031 17.988281 0 17.40625 0 16.6875 L 0 17.980469 C 0 18.699219 0.582031 19.28125 1.300781 19.28125 L 9.921875 19.28125 C 10.34375 19.28125 10.71875 19.078125 10.957031 18.769531 C 10.957031 18.765625 10.957031 18.765625 10.960938 18.761719 C 10.96875 18.75 10.980469 18.738281 10.988281 18.722656 C 10.992188 18.71875 10.992188 18.714844 10.996094 18.710938 C 11.003906 18.703125 11.011719 18.6875 11.019531 18.675781 C 11.019531 18.671875 11.023438 18.667969 11.027344 18.664062 C 11.035156 18.652344 11.039062 18.640625 11.046875 18.628906 C 11.050781 18.625 11.054688 18.621094 11.054688 18.613281 C 11.0625 18.601562 11.066406 18.59375 11.074219 18.582031 C 11.078125 18.574219 11.078125 18.570312 11.082031 18.5625 C 11.089844 18.554688 11.09375 18.542969 11.097656 18.53125 C 11.101562 18.523438 11.105469 18.519531 11.105469 18.511719 C 11.113281 18.5 11.117188 18.492188 11.121094 18.480469 C 11.125 18.472656 11.125 18.46875 11.128906 18.460938 C 11.132812 18.449219 11.136719 18.4375 11.140625 18.425781 C 11.144531 18.421875 11.148438 18.414062 11.148438 18.40625 C 11.152344 18.394531 11.15625 18.382812 11.160156 18.371094 C 11.164062 18.363281 11.164062 18.359375 11.167969 18.351562 C 11.171875 18.335938 11.175781 18.316406 11.183594 18.296875 C 11.136719 18.261719 11.09375 18.222656 11.050781 18.179688 C 11.046875 18.175781 11.042969 18.171875 11.039062 18.167969 C 10.996094 18.128906 10.957031 18.089844 10.917969 18.046875 C 10.914062 18.042969 10.90625 18.035156 10.902344 18.03125 C 10.863281 17.992188 10.824219 17.949219 10.785156 17.90625 C 10.785156 17.902344 10.78125 17.898438 10.777344 17.894531 C 10.738281 17.847656 10.699219 17.800781 10.660156 17.757812 C 10.117188 17.066406 9.789062 16.199219 9.789062 15.253906 C 9.789062 14.015625 10.347656 12.910156 11.222656 12.171875 L 11.222656 7.050781 C 11.222656 6.335938 10.640625 5.75 9.921875 5.75 Z M 9.921875 5.75 "/>
<path style=" stroke:none;fill-rule:nonzero;fill:rgb(35.294118%,40.392157%,67.843137%);fill-opacity:1;" d="M 2.535156 4.542969 L 8.683594 4.542969 L 8.683594 5.75 L 2.535156 5.75 Z M 2.535156 4.542969 "/>
<path style=" stroke:none;fill-rule:nonzero;fill:rgb(28.235294%,32.54902%,54.117647%);fill-opacity:1;" d="M 7.105469 4.542969 L 8.683594 4.542969 L 8.683594 5.75 L 7.105469 5.75 Z M 7.105469 4.542969 "/>
<path style=" stroke:none;fill-rule:nonzero;fill:rgb(35.686275%,61.960784%,83.921569%);fill-opacity:1;" d="M 1.257812 2.800781 L 1.257812 4.054688 C 1.257812 4.324219 1.476562 4.542969 1.746094 4.542969 L 9.472656 4.542969 C 9.742188 4.542969 9.960938 4.324219 9.960938 4.054688 L 9.960938 1.546875 C 9.960938 1.277344 9.742188 1.058594 9.472656 1.058594 L 1.746094 1.058594 C 1.476562 1.058594 1.257812 1.277344 1.257812 1.546875 Z M 1.257812 2.800781 "/>
<path style=" stroke:none;fill-rule:nonzero;fill:rgb(29.803922%,51.372549%,70.196078%);fill-opacity:1;" d="M 7.769531 1.058594 L 7.769531 4.542969 L 9.472656 4.542969 C 9.742188 4.542969 9.960938 4.324219 9.960938 4.054688 L 9.960938 1.546875 C 9.960938 1.277344 9.742188 1.058594 9.472656 1.058594 Z M 7.769531 1.058594 "/>
<path style=" stroke:none;fill-rule:nonzero;fill:rgb(93.72549%,17.647059%,34.117647%);fill-opacity:1;" d="M 8.984375 12.515625 C 8.984375 14.378906 7.472656 15.890625 5.609375 15.890625 C 3.746094 15.890625 2.238281 14.378906 2.238281 12.515625 C 2.238281 10.652344 3.746094 9.144531 5.609375 9.144531 C 7.472656 9.144531 8.984375 10.652344 8.984375 12.515625 Z M 8.984375 12.515625 "/>
<path style=" stroke:none;fill-rule:nonzero;fill:rgb(85.098039%,16.078431%,30.980392%);fill-opacity:1;" d="M 7.523438 9.738281 C 7.898438 10.28125 8.117188 10.9375 8.117188 11.648438 C 8.117188 13.511719 6.605469 15.023438 4.742188 15.023438 C 4.035156 15.023438 3.375 14.804688 2.832031 14.429688 C 3.441406 15.3125 4.457031 15.890625 5.609375 15.890625 C 7.472656 15.890625 8.984375 14.378906 8.984375 12.515625 C 8.984375 11.363281 8.40625 10.347656 7.523438 9.738281 Z M 7.523438 9.738281 "/>
<path style=" stroke:none;fill-rule:nonzero;fill:rgb(98.823529%,85.490196%,33.333333%);fill-opacity:1;" d="M 17.847656 15.253906 C 17.847656 17.476562 16.042969 19.28125 13.820312 19.28125 C 11.59375 19.28125 9.789062 17.476562 9.789062 15.253906 C 9.789062 13.027344 11.59375 11.222656 13.820312 11.222656 C 16.042969 11.222656 17.847656 13.027344 17.847656 15.253906 Z M 17.847656 15.253906 "/>
<path style=" stroke:none;fill-rule:nonzero;fill:rgb(85.098039%,73.72549%,29.019608%);fill-opacity:1;" d="M 16.253906 12.042969 C 16.769531 12.71875 17.074219 13.5625 17.074219 14.476562 C 17.074219 16.703125 15.269531 18.507812 13.042969 18.507812 C 12.128906 18.507812 11.285156 18.203125 10.609375 17.6875 C 11.34375 18.65625 12.507812 19.28125 13.820312 19.28125 C 16.042969 19.28125 17.847656 17.476562 17.847656 15.253906 C 17.847656 13.941406 17.222656 12.777344 16.253906 12.042969 Z M 16.253906 12.042969 "/>
<path style=" stroke:none;fill-rule:nonzero;fill:rgb(85.098039%,73.72549%,29.019608%);fill-opacity:1;" d="M 11.050781 18.140625 C 11.207031 18.277344 11.371094 18.398438 11.542969 18.507812 L 17.101562 12.949219 C 16.992188 12.777344 16.871094 12.613281 16.734375 12.457031 C 16.710938 12.472656 16.6875 12.488281 16.667969 12.511719 L 11.105469 18.074219 C 11.082031 18.09375 11.066406 18.117188 11.050781 18.140625 Z M 11.050781 18.140625 "/>
<path style=" stroke:none;fill-rule:nonzero;fill:rgb(94.117647%,51.764706%,67.843137%);fill-opacity:1;" d="M 16.339844 6.21875 C 14.902344 6.566406 13.773438 7.75 13.773438 9.28125 L 13.773438 11.222656 C 13.789062 11.222656 13.804688 11.222656 13.820312 11.222656 C 16.042969 11.222656 17.847656 13.027344 17.847656 15.253906 C 17.847656 16.351562 17.40625 17.34375 16.695312 18.070312 C 16.757812 18.074219 16.824219 18.078125 16.886719 18.078125 C 18.605469 18.078125 20 16.683594 20 14.964844 L 20 9.28125 C 20 7.75 18.890625 6.476562 17.433594 6.21875 C 17.433594 6.21875 16.714844 6.128906 16.339844 6.21875 Z M 16.339844 6.21875 "/>
<path style=" stroke:none;fill-rule:nonzero;fill:rgb(83.137255%,45.490196%,60%);fill-opacity:1;" d="M 17.433594 6.21875 C 17.039062 6.164062 16.675781 6.164062 16.339844 6.21875 C 16.332031 6.21875 16.320312 6.222656 16.308594 6.226562 C 17.75 6.496094 18.84375 7.761719 18.84375 9.28125 L 18.84375 14.964844 C 18.84375 16.273438 18.039062 17.390625 16.894531 17.851562 C 16.832031 17.929688 16.765625 18 16.695312 18.070312 C 16.757812 18.074219 16.824219 18.078125 16.886719 18.078125 C 18.605469 18.078125 20 16.683594 20 14.964844 L 20 9.28125 C 20 7.75 18.890625 6.476562 17.433594 6.21875 Z M 17.433594 6.21875 "/>
<path style=" stroke:none;fill-rule:nonzero;fill:rgb(93.72549%,17.647059%,34.117647%);fill-opacity:1;" d="M 16.359375 12.125 C 17.265625 12.863281 17.847656 13.988281 17.847656 15.253906 C 17.847656 16.351562 17.40625 17.34375 16.695312 18.070312 C 16.757812 18.074219 16.824219 18.078125 16.886719 18.078125 C 18.605469 18.078125 20 16.683594 20 14.964844 L 20 12.125 Z M 16.359375 12.125 "/>
<path style=" stroke:none;fill-rule:nonzero;fill:rgb(80%,14.901961%,29.411765%);fill-opacity:1;" d="M 18.84375 14.964844 C 18.84375 16.273438 18.039062 17.390625 16.894531 17.851562 C 16.867188 17.886719 16.835938 17.921875 16.804688 17.957031 C 16.800781 17.960938 16.792969 17.96875 16.789062 17.972656 C 16.757812 18.007812 16.726562 18.039062 16.695312 18.070312 C 16.757812 18.074219 16.824219 18.078125 16.886719 18.078125 C 18.605469 18.078125 20 16.683594 20 14.964844 L 20 12.125 L 18.84375 12.125 Z M 18.84375 14.964844 "/>
<path style=" stroke:none;fill-rule:nonzero;fill:rgb(100%,100%,100%);fill-opacity:1;" d="M 7.160156 12.207031 L 5.921875 12.207031 L 5.921875 10.964844 C 5.921875 10.796875 5.78125 10.65625 5.609375 10.65625 C 5.441406 10.65625 5.300781 10.796875 5.300781 10.964844 L 5.300781 12.207031 L 4.058594 12.207031 C 3.890625 12.207031 3.75 12.34375 3.75 12.515625 C 3.75 12.6875 3.890625 12.828125 4.058594 12.828125 L 5.300781 12.828125 L 5.300781 14.066406 C 5.300781 14.238281 5.441406 14.375 5.609375 14.375 C 5.78125 14.375 5.921875 14.238281 5.921875 14.066406 L 5.921875 12.828125 L 7.160156 12.828125 C 7.332031 12.828125 7.46875 12.6875 7.46875 12.515625 C 7.46875 12.34375 7.332031 12.207031 7.160156 12.207031 Z M 7.160156 12.207031 "/>
<path style=" stroke:none;fill-rule:nonzero;fill:rgb(40.392157%,25.882353%,59.215686%);fill-opacity:1;" d="M 3.390625 4.84375 C 3.222656 4.84375 3.082031 4.703125 3.082031 4.535156 L 3.082031 1.050781 C 3.082031 0.882812 3.222656 0.742188 3.390625 0.742188 C 3.5625 0.742188 3.703125 0.882812 3.703125 1.050781 L 3.703125 4.535156 C 3.703125 4.703125 3.5625 4.84375 3.390625 4.84375 Z M 3.390625 4.84375 "/>
<path style=" stroke:none;fill-rule:nonzero;fill:rgb(40.392157%,25.882353%,59.215686%);fill-opacity:1;" d="M 5.617188 4.84375 C 5.445312 4.84375 5.304688 4.703125 5.304688 4.535156 L 5.304688 1.050781 C 5.304688 0.882812 5.445312 0.742188 5.617188 0.742188 C 5.785156 0.742188 5.925781 0.882812 5.925781 1.050781 L 5.925781 4.535156 C 5.925781 4.703125 5.785156 4.84375 5.617188 4.84375 Z M 5.617188 4.84375 "/>
<path style=" stroke:none;fill-rule:nonzero;fill:rgb(40.392157%,25.882353%,59.215686%);fill-opacity:1;" d="M 7.839844 4.84375 C 7.667969 4.84375 7.527344 4.703125 7.527344 4.535156 L 7.527344 1.050781 C 7.527344 0.882812 7.667969 0.742188 7.839844 0.742188 C 8.007812 0.742188 8.148438 0.882812 8.148438 1.050781 L 8.148438 4.535156 C 8.148438 4.703125 8.007812 4.84375 7.839844 4.84375 Z M 7.839844 4.84375 "/>
<path style=" stroke:none;fill-rule:nonzero;fill:rgb(90.196078%,57.647059%,14.901961%);fill-opacity:1;" d="M 10.996094 18.378906 C 10.917969 18.378906 10.839844 18.351562 10.777344 18.289062 C 10.65625 18.167969 10.65625 17.972656 10.777344 17.851562 L 16.339844 12.289062 C 16.460938 12.167969 16.65625 12.167969 16.777344 12.289062 C 16.898438 12.410156 16.898438 12.605469 16.777344 12.726562 L 11.214844 18.289062 C 11.15625 18.351562 11.078125 18.378906 10.996094 18.378906 Z M 10.996094 18.378906 "/>
</g>
</svg>
