<?xml version="1.0" encoding="UTF-8"?>
<svg xmlns="http://www.w3.org/2000/svg" xmlns:xlink="http://www.w3.org/1999/xlink" width="20pt" height="20pt" viewBox="0 0 20 20" version="1.1">
<g id="surface1">
<path style=" stroke:none;fill-rule:nonzero;fill:rgb(100%,35.686275%,38.431373%);fill-opacity:1;" d="M 20 10 C 20 15.523438 15.523438 20 10 20 C 4.476562 20 0 15.523438 0 10 C 0 4.476562 4.476562 0 10 0 C 15.523438 0 20 4.476562 20 10 Z M 20 10 "/>
<path style=" stroke:none;fill-rule:nonzero;fill:rgb(70.196078%,70.196078%,70.196078%);fill-opacity:1;" d="M 8.605469 9.742188 C 9.535156 9.742188 10.464844 9.742188 11.394531 9.742188 L 11.410156 9.933594 L 10.046875 12 L 8.582031 9.914062 Z M 8.605469 9.742188 "/>
<path style=" stroke:none;fill-rule:nonzero;fill:rgb(94.117647%,72.941176%,49.019608%);fill-opacity:1;" d="M 8.625 9.226562 L 8.601562 10.390625 L 6.625 11.472656 L 6.625 15.433594 L 13.277344 15.433594 L 13.277344 11.472656 L 11.441406 10.328125 L 11.339844 9.164062 Z M 8.625 9.226562 "/>
<path style=" stroke:none;fill-rule:nonzero;fill:rgb(99.607843%,82.352941%,59.607843%);fill-opacity:1;" d="M 7.710938 5.828125 C 7.710938 5.828125 7.597656 5.578125 7.292969 5.703125 C 6.988281 5.828125 7.308594 7.054688 7.421875 7.226562 C 7.539062 7.398438 7.726562 7.289062 7.792969 7.285156 C 7.890625 8.015625 7.898438 8.523438 8.195312 8.832031 C 8.472656 9.125 9.109375 9.722656 9.445312 9.929688 C 9.671875 9.976562 9.839844 10.007812 10 10.015625 C 10.160156 10.007812 10.328125 9.976562 10.554688 9.929688 C 10.890625 9.722656 11.527344 9.125 11.804688 8.832031 C 12.101562 8.523438 12.109375 8.019531 12.207031 7.285156 C 12.273438 7.289062 12.460938 7.398438 12.578125 7.226562 C 12.691406 7.054688 13.011719 5.828125 12.707031 5.703125 C 12.402344 5.578125 12.289062 5.828125 12.289062 5.828125 C 12.289062 5.828125 12.589844 4.863281 12.054688 3.910156 C 11.6875 3.257812 10.851562 2.921875 10 2.898438 C 9.148438 2.921875 8.3125 3.257812 7.945312 3.910156 C 7.410156 4.863281 7.710938 5.828125 7.710938 5.828125 Z M 7.710938 5.828125 "/>
<path style=" stroke:none;fill-rule:nonzero;fill:rgb(8.235294%,74.117647%,69.803922%);fill-opacity:1;" d="M 7.632812 10.734375 L 8.105469 10.546875 L 8.484375 10.203125 L 9.832031 11.226562 L 10.167969 11.226562 L 11.515625 10.203125 L 12.367188 10.734375 L 13.855469 13.257812 L 12.679688 19.636719 C 11.824219 19.871094 10.925781 20 10 20 C 9.242188 20 8.507812 19.914062 7.796875 19.757812 L 5.691406 13.457031 L 7.628906 10.734375 Z M 7.632812 10.734375 "/>
<path style=" stroke:none;fill-rule:nonzero;fill:rgb(12.941176%,81.568627%,76.470588%);fill-opacity:1;" d="M 11.9375 10.414062 L 11.394531 9.742188 L 10.167969 11.226562 L 11.21875 12.394531 Z M 11.9375 10.414062 "/>
<path style=" stroke:none;fill-rule:nonzero;fill:rgb(12.941176%,81.568627%,76.470588%);fill-opacity:1;" d="M 8.0625 10.402344 L 8.605469 9.742188 L 9.832031 11.226562 L 8.738281 12.382812 Z M 8.0625 10.402344 "/>
<path style=" stroke:none;fill-rule:nonzero;fill:rgb(100%,100%,100%);fill-opacity:1;" d="M 8.0625 10.402344 L 4.457031 11.574219 C 4.3125 11.621094 4.21875 11.746094 4.191406 11.898438 L 3.128906 17.265625 C 3.84375 17.941406 4.65625 18.511719 5.546875 18.953125 L 6.070312 17.234375 C 6.078125 17.214844 6.097656 17.203125 6.117188 17.207031 C 6.136719 17.207031 6.152344 17.222656 6.15625 17.246094 L 6.230469 19.265625 C 7.394531 19.738281 8.667969 20 10 20 L 10 19.328125 Z M 8.0625 10.402344 "/>
<path style=" stroke:none;fill-rule:nonzero;fill:rgb(93.333333%,95.294118%,96.862745%);fill-opacity:1;" d="M 8.0625 10.402344 L 7.648438 10.527344 L 6.554688 12.394531 L 7.9375 12.4375 L 7.089844 12.921875 L 10 19.328125 Z M 8.0625 10.402344 "/>
<path style=" stroke:none;fill-rule:nonzero;fill:rgb(93.333333%,95.294118%,96.862745%);fill-opacity:1;" d="M 11.9375 10.414062 L 15.542969 11.574219 C 15.6875 11.621094 15.78125 11.746094 15.808594 11.898438 L 16.871094 17.265625 C 16.15625 17.941406 15.34375 18.511719 14.453125 18.953125 L 13.929688 17.234375 C 13.921875 17.214844 13.902344 17.203125 13.882812 17.207031 C 13.863281 17.207031 13.847656 17.226562 13.84375 17.246094 L 13.769531 19.265625 C 12.605469 19.738281 11.332031 20 10 20 L 10 19.328125 Z M 11.9375 10.414062 "/>
<path style=" stroke:none;fill-rule:nonzero;fill:rgb(100%,100%,100%);fill-opacity:1;" d="M 11.9375 10.414062 L 12.167969 10.484375 L 13.441406 12.40625 L 12.0625 12.449219 L 12.910156 12.933594 L 10 19.328125 Z M 11.9375 10.414062 "/>
<path style=" stroke:none;fill-rule:nonzero;fill:rgb(85.098039%,85.490196%,85.490196%);fill-opacity:1;" d="M 10.410156 19.289062 C 10.285156 19.289062 10.1875 19.386719 10.1875 19.507812 C 10.1875 19.628906 10.285156 19.726562 10.410156 19.726562 C 10.53125 19.726562 10.628906 19.628906 10.628906 19.507812 C 10.628906 19.386719 10.53125 19.289062 10.410156 19.289062 Z M 10.410156 19.289062 "/>
<path style=" stroke:none;fill-rule:nonzero;fill:rgb(40%,40%,40%);fill-opacity:1;" d="M 12.027344 6.117188 L 12.238281 6.109375 L 12.308594 5.867188 L 12.507812 5.667969 C 12.636719 4.675781 12.675781 3.128906 11.691406 3.171875 C 11.691406 3.171875 11.601562 2.046875 9.824219 2.265625 C 8.046875 2.488281 7.242188 3.636719 7.339844 4.59375 C 7.433594 5.550781 7.394531 5.667969 7.394531 5.667969 L 7.59375 5.867188 L 7.625 6.140625 L 7.800781 6.132812 C 7.800781 6.132812 7.855469 5.761719 7.910156 5.601562 C 7.964844 5.4375 7.945312 5.109375 7.945312 5.109375 C 7.945312 5.109375 10.046875 5.246094 10.613281 4.523438 C 10.964844 4.078125 11.769531 3.304688 11.8125 4.375 C 11.824219 4.691406 11.703125 5.167969 11.929688 5.511719 C 12.15625 5.859375 12.027344 6.117188 12.027344 6.117188 Z M 12.027344 6.117188 "/>
<path style=" stroke:none;fill-rule:nonzero;fill:rgb(5.882353%,47.45098%,52.54902%);fill-opacity:1;" d="M 10 19.328125 L 10.566406 16.714844 L 10.183594 11.566406 L 10.390625 11.476562 L 10.167969 11.226562 L 9.832031 11.226562 L 9.601562 11.46875 L 9.816406 11.566406 L 9.441406 16.757812 Z M 10 19.328125 "/>
<path style=" stroke:none;fill-rule:nonzero;fill:rgb(100%,100%,100%);fill-opacity:1;" d="M 10.390625 19.289062 C 10.277344 19.289062 10.1875 19.378906 10.1875 19.488281 C 10.1875 19.597656 10.277344 19.6875 10.390625 19.6875 C 10.5 19.6875 10.589844 19.597656 10.589844 19.488281 C 10.589844 19.378906 10.5 19.289062 10.390625 19.289062 Z M 10.390625 19.289062 "/>
<path style=" stroke:none;fill-rule:nonzero;fill:rgb(99.607843%,99.607843%,99.607843%);fill-opacity:1;" d="M 13.53125 15.980469 C 13.140625 15.910156 12.878906 15.539062 12.945312 15.152344 C 13.015625 14.761719 13.386719 14.5 13.773438 14.566406 C 14.164062 14.632812 14.425781 15.003906 14.359375 15.394531 C 14.292969 15.785156 13.921875 16.046875 13.53125 15.980469 Z M 13.53125 15.980469 "/>
<path style=" stroke:none;fill-rule:nonzero;fill:rgb(5.882353%,47.45098%,52.54902%);fill-opacity:1;" d="M 13.539062 15.9375 C 13.171875 15.875 12.925781 15.523438 12.988281 15.15625 C 13.050781 14.789062 13.402344 14.542969 13.769531 14.605469 C 14.136719 14.671875 14.382812 15.019531 14.320312 15.386719 C 14.253906 15.753906 13.90625 16 13.539062 15.9375 Z M 13.539062 15.9375 "/>
<path style=" stroke:none;fill-rule:nonzero;fill:rgb(92.156863%,92.54902%,92.54902%);fill-opacity:1;" d="M 13.589844 15.640625 C 13.386719 15.605469 13.25 15.414062 13.285156 15.210938 C 13.320312 15.003906 13.511719 14.871094 13.714844 14.90625 C 13.921875 14.941406 14.054688 15.132812 14.019531 15.335938 C 13.984375 15.539062 13.792969 15.675781 13.589844 15.640625 Z M 13.589844 15.640625 "/>
<path style=" stroke:none;fill-rule:nonzero;fill:rgb(99.607843%,99.607843%,99.607843%);fill-opacity:1;" d="M 13.632812 14.945312 L 13.796875 14.972656 L 13.886719 14.460938 L 13.722656 14.433594 Z M 13.632812 14.945312 "/>
<path style=" stroke:none;fill-rule:nonzero;fill:rgb(12.941176%,81.568627%,76.470588%);fill-opacity:1;" d="M 8.132812 16.121094 L 8.441406 16.058594 C 8.574219 16.035156 8.679688 15.957031 8.75 15.855469 C 8.820312 15.75 8.847656 15.621094 8.824219 15.492188 L 8.460938 13.667969 C 8.324219 12.980469 7.785156 12.628906 7.171875 12.550781 C 6.9375 12.519531 6.6875 12.53125 6.449219 12.578125 C 6.210938 12.625 5.976562 12.710938 5.773438 12.828125 C 5.234375 13.132812 4.871094 13.664062 5.007812 14.351562 L 5.371094 16.175781 C 5.398438 16.304688 5.472656 16.414062 5.578125 16.484375 C 5.679688 16.550781 5.808594 16.582031 5.941406 16.554688 L 6.25 16.496094 L 6.222656 16.367188 L 5.914062 16.429688 C 5.820312 16.449219 5.722656 16.425781 5.648438 16.375 C 5.574219 16.324219 5.515625 16.246094 5.496094 16.148438 L 5.136719 14.328125 C 5.011719 13.703125 5.34375 13.21875 5.835938 12.941406 C 6.03125 12.828125 6.25 12.75 6.476562 12.707031 C 6.699219 12.660156 6.933594 12.648438 7.15625 12.679688 C 7.71875 12.75 8.210938 13.066406 8.335938 13.691406 L 8.695312 15.515625 C 8.714844 15.609375 8.695312 15.707031 8.644531 15.78125 C 8.59375 15.855469 8.511719 15.914062 8.417969 15.933594 L 8.109375 15.992188 Z M 8.132812 16.121094 "/>
<path style=" stroke:none;fill-rule:nonzero;fill:rgb(30.196078%,30.196078%,30.196078%);fill-opacity:1;" d="M 8.558594 13.9375 L 8.503906 13.660156 C 8.363281 12.949219 7.808594 12.589844 7.175781 12.507812 C 6.9375 12.476562 6.683594 12.488281 6.441406 12.539062 C 6.199219 12.585938 5.960938 12.671875 5.75 12.792969 C 5.199219 13.105469 4.824219 13.652344 4.96875 14.359375 L 5.023438 14.640625 L 5.234375 14.597656 L 5.179688 14.320312 C 5.058594 13.714844 5.378906 13.25 5.855469 12.976562 C 6.046875 12.871094 6.261719 12.792969 6.484375 12.746094 C 6.703125 12.703125 6.933594 12.695312 7.152344 12.722656 C 7.695312 12.789062 8.171875 13.097656 8.292969 13.699219 L 8.347656 13.980469 Z M 8.558594 13.9375 "/>
<path style=" stroke:none;fill-rule:nonzero;fill:rgb(2.745098%,40%,45.098039%);fill-opacity:1;" d="M 6.003906 16.570312 L 6.167969 16.539062 C 6.210938 16.585938 6.273438 16.609375 6.339844 16.597656 C 6.4375 16.578125 6.5 16.480469 6.480469 16.382812 C 6.460938 16.285156 6.367188 16.222656 6.269531 16.242188 C 6.203125 16.253906 6.152344 16.300781 6.132812 16.359375 L 5.96875 16.390625 Z M 6.003906 16.570312 "/>
<path style=" stroke:none;fill-rule:nonzero;fill:rgb(2.745098%,40%,45.098039%);fill-opacity:1;" d="M 8.265625 16.121094 L 8.101562 16.15625 C 8.082031 16.214844 8.03125 16.261719 7.964844 16.273438 C 7.867188 16.292969 7.773438 16.230469 7.753906 16.132812 C 7.734375 16.035156 7.796875 15.9375 7.894531 15.917969 C 7.960938 15.90625 8.023438 15.929688 8.066406 15.976562 L 8.230469 15.945312 Z M 8.265625 16.121094 "/>
<path style=" stroke:none;fill-rule:nonzero;fill:rgb(40%,40%,40%);fill-opacity:1;" d="M 6.542969 12.519531 L 6.480469 12.203125 L 6.355469 12.230469 L 6.230469 12.253906 L 6.292969 12.574219 C 6.339844 12.558594 6.386719 12.546875 6.4375 12.539062 C 6.472656 12.53125 6.507812 12.527344 6.542969 12.519531 Z M 6.542969 12.519531 "/>
<path style=" stroke:none;fill-rule:nonzero;fill:rgb(5.882353%,47.45098%,52.54902%);fill-opacity:1;" d="M 6.273438 16.394531 C 6.300781 16.390625 6.320312 16.359375 6.316406 16.332031 C 6.308594 16.300781 6.28125 16.28125 6.25 16.289062 C 6.222656 16.292969 6.203125 16.324219 6.207031 16.351562 C 6.214844 16.382812 6.242188 16.402344 6.273438 16.394531 Z M 6.273438 16.394531 "/>
<path style=" stroke:none;fill-rule:nonzero;fill:rgb(5.882353%,47.45098%,52.54902%);fill-opacity:1;" d="M 7.898438 16.070312 C 7.929688 16.066406 7.949219 16.039062 7.941406 16.007812 C 7.9375 15.976562 7.90625 15.960938 7.878906 15.964844 C 7.847656 15.972656 7.828125 16 7.835938 16.027344 C 7.839844 16.058594 7.871094 16.078125 7.898438 16.070312 Z M 7.898438 16.070312 "/>
<path style=" stroke:none;fill-rule:nonzero;fill:rgb(99.607843%,99.607843%,99.607843%);fill-opacity:1;" d="M 13.570312 15.636719 C 13.378906 15.605469 13.25 15.421875 13.28125 15.230469 C 13.316406 15.035156 13.496094 14.90625 13.691406 14.941406 C 13.882812 14.972656 14.011719 15.15625 13.976562 15.347656 C 13.945312 15.542969 13.761719 15.671875 13.570312 15.636719 Z M 13.570312 15.636719 "/>
<path style=" stroke:none;fill-rule:nonzero;fill:rgb(30.196078%,30.196078%,30.196078%);fill-opacity:1;" d="M 8.0625 10.496094 C 8.058594 10.496094 6.117188 10.511719 6.445312 12.210938 L 6.261719 12.246094 C 5.894531 10.332031 8.054688 10.3125 8.0625 10.3125 Z M 8.0625 10.496094 "/>
<path style=" stroke:none;fill-rule:nonzero;fill:rgb(30.196078%,30.196078%,30.196078%);fill-opacity:1;" d="M 11.9375 10.320312 C 12.257812 10.332031 12.867188 10.417969 13.339844 10.992188 C 13.800781 11.550781 14.125 12.582031 13.882812 14.472656 L 13.699219 14.449219 C 13.933594 12.621094 13.632812 11.636719 13.199219 11.105469 C 12.773438 10.589844 12.222656 10.511719 11.933594 10.503906 Z M 11.9375 10.320312 "/>
</g>
</svg>
