<?xml version="1.0" encoding="UTF-8"?>
<svg xmlns="http://www.w3.org/2000/svg" xmlns:xlink="http://www.w3.org/1999/xlink" width="20pt" height="20pt" viewBox="0 0 20 20" version="1.1">
<g id="surface1">
<path style=" stroke:none;fill-rule:nonzero;fill:rgb(12.941176%,81.568627%,76.470588%);fill-opacity:1;" d="M 20 10 C 20 15.523438 15.523438 20 10 20 C 4.476562 20 0 15.523438 0 10 C 0 4.476562 4.476562 0 10 0 C 15.523438 0 20 4.476562 20 10 Z M 20 10 "/>
<path style=" stroke:none;fill-rule:nonzero;fill:rgb(100%,35.686275%,38.431373%);fill-opacity:1;" d="M 2.386719 2.695312 L 15.113281 2.695312 L 15.113281 19.210938 L 2.386719 19.210938 Z M 2.386719 2.695312 "/>
<path style=" stroke:none;fill-rule:nonzero;fill:rgb(86.27451%,89.019608%,85.882353%);fill-opacity:1;" d="M 2.84375 3.265625 L 14.269531 3.265625 L 14.65625 18.710938 L 3.230469 18.710938 Z M 2.84375 3.265625 "/>
<path style=" stroke:none;fill-rule:nonzero;fill:rgb(100%,100%,100%);fill-opacity:1;" d="M 3.035156 3.265625 L 14.269531 3.265625 L 14.269531 18.332031 L 3.035156 18.332031 Z M 3.035156 3.265625 "/>
<path style=" stroke:none;fill-rule:nonzero;fill:rgb(40%,40%,40%);fill-opacity:1;" d="M 7.277344 2.292969 L 10.351562 2.292969 C 10.574219 2.292969 10.753906 2.472656 10.753906 2.695312 L 10.753906 4.019531 L 6.871094 4.019531 L 6.871094 2.695312 C 6.871094 2.472656 7.054688 2.292969 7.277344 2.292969 Z M 7.277344 2.292969 "/>
<path style=" stroke:none;fill-rule:nonzero;fill:rgb(69.019608%,69.019608%,69.019608%);fill-opacity:1;" d="M 6.789062 3.917969 L 10.839844 3.917969 C 10.925781 3.917969 10.992188 3.988281 10.992188 4.074219 C 10.992188 4.160156 10.925781 4.226562 10.839844 4.226562 L 6.789062 4.226562 C 6.703125 4.226562 6.632812 4.160156 6.632812 4.074219 C 6.632812 3.988281 6.703125 3.917969 6.789062 3.917969 Z M 6.789062 3.917969 "/>
<path style=" stroke:none;fill-rule:nonzero;fill:rgb(99.607843%,99.607843%,99.607843%);fill-opacity:1;" d="M 8.410156 1.890625 L 8.082031 3.917969 L 7.914062 3.917969 L 8.238281 1.894531 C 8.148438 1.765625 8.101562 1.613281 8.101562 1.460938 C 8.101562 1.363281 8.121094 1.269531 8.160156 1.179688 C 8.199219 1.089844 8.257812 1.011719 8.335938 0.945312 C 8.59375 0.738281 9.035156 0.738281 9.289062 0.945312 C 9.371094 1.011719 9.429688 1.089844 9.46875 1.179688 C 9.507812 1.269531 9.527344 1.367188 9.527344 1.464844 C 9.527344 1.613281 9.480469 1.769531 9.386719 1.894531 L 9.714844 3.917969 L 9.546875 3.917969 L 9.21875 1.890625 C 9.214844 1.867188 9.222656 1.839844 9.238281 1.820312 C 9.320312 1.71875 9.363281 1.589844 9.363281 1.464844 C 9.363281 1.386719 9.347656 1.3125 9.316406 1.246094 C 9.289062 1.179688 9.246094 1.121094 9.183594 1.074219 C 8.992188 0.917969 8.636719 0.917969 8.441406 1.074219 C 8.382812 1.121094 8.339844 1.179688 8.308594 1.246094 C 8.28125 1.3125 8.265625 1.386719 8.265625 1.460938 C 8.265625 1.589844 8.308594 1.71875 8.390625 1.824219 C 8.410156 1.84375 8.414062 1.867188 8.410156 1.890625 Z M 8.410156 1.890625 "/>
<path style=" stroke:none;fill-rule:nonzero;fill:rgb(76.078431%,76.078431%,76.862745%);fill-opacity:1;" d="M 7.453125 7.6875 L 13.3125 7.6875 L 13.3125 7.835938 L 7.453125 7.835938 Z M 7.453125 9.117188 L 11.109375 9.117188 L 11.109375 9.265625 L 7.453125 9.265625 Z M 7.453125 8.402344 L 13.3125 8.402344 L 13.3125 8.550781 L 7.453125 8.550781 Z M 7.453125 8.402344 "/>
<path style=" stroke:none;fill-rule:nonzero;fill:rgb(76.078431%,76.078431%,76.862745%);fill-opacity:1;" d="M 7.453125 11.484375 L 13.3125 11.484375 L 13.3125 11.632812 L 7.453125 11.632812 Z M 7.453125 12.910156 L 11.109375 12.910156 L 11.109375 13.058594 L 7.453125 13.058594 Z M 7.453125 12.195312 L 13.3125 12.195312 L 13.3125 12.34375 L 7.453125 12.34375 Z M 7.453125 12.195312 "/>
<path style=" stroke:none;fill-rule:nonzero;fill:rgb(76.078431%,76.078431%,76.862745%);fill-opacity:1;" d="M 7.453125 15.277344 L 13.3125 15.277344 L 13.3125 15.425781 L 7.453125 15.425781 Z M 7.453125 16.707031 L 11.109375 16.707031 L 11.109375 16.855469 L 7.453125 16.855469 Z M 7.453125 15.992188 L 13.3125 15.992188 L 13.3125 16.140625 L 7.453125 16.140625 Z M 7.453125 15.992188 "/>
<path style=" stroke:none;fill-rule:nonzero;fill:rgb(8.235294%,74.117647%,69.803922%);fill-opacity:1;" d="M 4.898438 7.375 C 5.203125 7.375 5.480469 7.496094 5.679688 7.695312 C 5.878906 7.894531 6.003906 8.171875 6.003906 8.476562 C 6.003906 8.78125 5.878906 9.054688 5.679688 9.253906 C 5.480469 9.453125 5.203125 9.578125 4.898438 9.578125 C 4.597656 9.578125 4.320312 9.453125 4.121094 9.253906 C 3.921875 9.054688 3.796875 8.78125 3.796875 8.476562 C 3.796875 8.171875 3.921875 7.894531 4.121094 7.695312 C 4.320312 7.496094 4.597656 7.375 4.898438 7.375 Z M 5.5625 7.8125 C 5.394531 7.644531 5.160156 7.539062 4.898438 7.539062 C 4.640625 7.539062 4.40625 7.644531 4.238281 7.8125 C 4.066406 7.980469 3.960938 8.214844 3.960938 8.476562 C 3.960938 8.734375 4.066406 8.96875 4.238281 9.140625 C 4.40625 9.308594 4.640625 9.414062 4.898438 9.414062 C 5.160156 9.414062 5.394531 9.308594 5.5625 9.140625 C 5.734375 8.96875 5.835938 8.734375 5.835938 8.476562 C 5.835938 8.214844 5.734375 7.980469 5.5625 7.8125 Z M 5.5625 7.8125 "/>
<path style=" stroke:none;fill-rule:nonzero;fill:rgb(8.235294%,74.117647%,69.803922%);fill-opacity:1;" d="M 4.898438 11.167969 C 5.203125 11.167969 5.480469 11.292969 5.679688 11.492188 C 5.878906 11.691406 6.003906 11.96875 6.003906 12.269531 C 6.003906 12.574219 5.878906 12.851562 5.679688 13.050781 C 5.480469 13.25 5.203125 13.375 4.898438 13.375 C 4.597656 13.375 4.320312 13.25 4.121094 13.050781 C 3.921875 12.851562 3.796875 12.574219 3.796875 12.269531 C 3.796875 11.96875 3.921875 11.691406 4.121094 11.492188 C 4.320312 11.292969 4.597656 11.167969 4.898438 11.167969 Z M 5.5625 11.609375 C 5.394531 11.4375 5.160156 11.332031 4.898438 11.332031 C 4.640625 11.332031 4.40625 11.4375 4.238281 11.609375 C 4.066406 11.777344 3.960938 12.011719 3.960938 12.269531 C 3.960938 12.53125 4.066406 12.765625 4.238281 12.933594 C 4.40625 13.105469 4.640625 13.207031 4.898438 13.207031 C 5.160156 13.207031 5.394531 13.105469 5.5625 12.933594 C 5.734375 12.765625 5.835938 12.53125 5.835938 12.269531 C 5.835938 12.011719 5.734375 11.777344 5.5625 11.609375 Z M 5.5625 11.609375 "/>
<path style=" stroke:none;fill-rule:nonzero;fill:rgb(8.235294%,74.117647%,69.803922%);fill-opacity:1;" d="M 4.898438 14.964844 C 5.203125 14.964844 5.480469 15.089844 5.679688 15.289062 C 5.878906 15.488281 6.003906 15.761719 6.003906 16.066406 C 6.003906 16.371094 5.878906 16.648438 5.679688 16.847656 C 5.480469 17.046875 5.203125 17.167969 4.898438 17.167969 C 4.597656 17.167969 4.320312 17.046875 4.121094 16.84375 L 4.121094 16.847656 C 3.921875 16.648438 3.796875 16.371094 3.796875 16.066406 C 3.796875 15.761719 3.921875 15.488281 4.121094 15.289062 C 4.320312 15.089844 4.597656 14.964844 4.898438 14.964844 Z M 5.5625 15.402344 C 5.394531 15.234375 5.160156 15.128906 4.898438 15.128906 C 4.640625 15.128906 4.40625 15.234375 4.238281 15.402344 C 4.066406 15.574219 3.960938 15.808594 3.960938 16.066406 C 3.960938 16.324219 4.066406 16.558594 4.238281 16.730469 C 4.40625 16.898438 4.640625 17.003906 4.898438 17.003906 C 5.160156 17.003906 5.394531 16.898438 5.5625 16.730469 C 5.734375 16.558594 5.835938 16.324219 5.835938 16.066406 C 5.835938 15.808594 5.734375 15.574219 5.5625 15.402344 Z M 5.5625 15.402344 "/>
<path style=" stroke:none;fill-rule:nonzero;fill:rgb(100%,35.686275%,38.431373%);fill-opacity:1;" d="M 4.304688 8.589844 C 4.265625 8.558594 4.257812 8.5 4.285156 8.460938 C 4.316406 8.421875 4.375 8.414062 4.417969 8.445312 L 4.734375 8.6875 L 5.242188 8.003906 C 5.269531 7.960938 5.328125 7.953125 5.371094 7.984375 C 5.410156 8.015625 5.417969 8.074219 5.386719 8.113281 L 4.828125 8.871094 L 4.828125 8.875 C 4.796875 8.914062 4.738281 8.921875 4.695312 8.890625 Z M 4.304688 8.589844 "/>
<path style=" stroke:none;fill-rule:nonzero;fill:rgb(100%,35.686275%,38.431373%);fill-opacity:1;" d="M 4.367188 12.421875 C 4.328125 12.394531 4.320312 12.335938 4.351562 12.292969 C 4.382812 12.253906 4.4375 12.246094 4.480469 12.277344 L 4.796875 12.519531 L 5.304688 11.835938 C 5.332031 11.796875 5.390625 11.785156 5.433594 11.816406 C 5.472656 11.847656 5.480469 11.90625 5.453125 11.945312 L 4.890625 12.703125 L 4.890625 12.707031 C 4.859375 12.746094 4.800781 12.753906 4.761719 12.722656 Z M 4.367188 12.421875 "/>
<path style=" stroke:none;fill-rule:nonzero;fill:rgb(100%,35.686275%,38.431373%);fill-opacity:1;" d="M 4.367188 16.21875 C 4.328125 16.1875 4.320312 16.128906 4.351562 16.089844 C 4.382812 16.050781 4.4375 16.042969 4.480469 16.074219 L 4.796875 16.316406 L 5.304688 15.632812 C 5.332031 15.589844 5.390625 15.582031 5.433594 15.613281 C 5.472656 15.644531 5.480469 15.699219 5.453125 15.742188 L 4.890625 16.5 L 4.890625 16.503906 C 4.859375 16.542969 4.800781 16.550781 4.761719 16.519531 Z M 4.367188 16.21875 "/>
<path style=" stroke:none;fill-rule:nonzero;fill:rgb(5.882353%,47.45098%,52.54902%);fill-opacity:1;" d="M 16.324219 4.117188 L 17.296875 4.117188 L 17.296875 8.941406 L 16.324219 8.941406 Z M 16.324219 4.117188 "/>
<path style=" stroke:none;fill-rule:nonzero;fill:rgb(100%,35.686275%,38.431373%);fill-opacity:1;" d="M 16.324219 8.941406 L 17.296875 8.941406 L 16.992188 9.898438 L 16.628906 9.898438 Z M 16.324219 8.941406 "/>
<path style=" stroke:none;fill-rule:nonzero;fill:rgb(100%,35.686275%,38.431373%);fill-opacity:1;" d="M 16.554688 0.945312 L 17.066406 0.945312 C 17.214844 0.945312 17.335938 1.066406 17.335938 1.214844 L 17.335938 4.105469 C 17.335938 4.109375 17.328125 4.117188 17.320312 4.117188 L 16.300781 4.117188 C 16.292969 4.117188 16.285156 4.109375 16.285156 4.105469 L 16.285156 1.214844 C 16.285156 1.066406 16.40625 0.945312 16.554688 0.945312 Z M 16.554688 0.945312 "/>
<path style=" stroke:none;fill-rule:nonzero;fill:rgb(92.941176%,29.803922%,32.941176%);fill-opacity:1;" d="M 17.335938 1.214844 L 17.335938 4.105469 C 17.332031 4.109375 17.328125 4.117188 17.320312 4.117188 L 17.199219 4.117188 L 17.199219 0.980469 C 17.277344 1.027344 17.335938 1.113281 17.335938 1.214844 Z M 17.335938 1.214844 "/>
<path style=" stroke:none;fill-rule:nonzero;fill:rgb(93.333333%,95.294118%,96.862745%);fill-opacity:1;" d="M 16.71875 9.898438 L 16.902344 9.898438 L 16.902344 10.34375 C 16.902344 10.394531 16.863281 10.4375 16.8125 10.4375 L 16.808594 10.4375 C 16.757812 10.4375 16.71875 10.394531 16.71875 10.34375 Z M 16.71875 9.898438 "/>
<path style=" stroke:none;fill-rule:nonzero;fill:rgb(98.039216%,82.352941%,30.196078%);fill-opacity:1;" d="M 16.285156 1.226562 L 17.613281 1.226562 L 17.613281 4.363281 L 17.59375 4.382812 L 17.476562 4.519531 C 17.417969 4.570312 17.320312 4.492188 17.375 4.421875 L 17.476562 4.308594 L 17.476562 1.371094 L 16.285156 1.371094 Z M 16.285156 1.226562 "/>
<path style=" stroke:none;fill-rule:nonzero;fill:rgb(2.745098%,40%,45.098039%);fill-opacity:1;" d="M 17.175781 4.117188 L 17.296875 4.117188 L 17.296875 8.941406 L 17.175781 8.941406 Z M 17.175781 4.117188 "/>
<path style=" stroke:none;fill-rule:nonzero;fill:rgb(8.235294%,74.117647%,69.803922%);fill-opacity:1;" d="M 5.601562 6.066406 C 5.546875 6.066406 5.503906 6.023438 5.503906 5.96875 C 5.503906 5.917969 5.546875 5.875 5.601562 5.875 L 7.175781 5.875 L 7.527344 5.019531 C 7.550781 4.96875 7.605469 4.945312 7.652344 4.964844 C 7.679688 4.976562 7.695312 4.996094 7.707031 5.019531 L 8.230469 6.34375 L 8.675781 5.585938 C 8.703125 5.542969 8.761719 5.527344 8.804688 5.554688 C 8.820312 5.5625 8.832031 5.574219 8.839844 5.585938 L 9.097656 5.984375 L 9.472656 5.585938 C 9.507812 5.546875 9.570312 5.542969 9.609375 5.582031 C 9.617188 5.585938 9.621094 5.59375 9.625 5.605469 L 9.777344 5.875 L 11.820312 5.875 C 11.871094 5.875 11.914062 5.917969 11.914062 5.96875 C 11.914062 6.023438 11.871094 6.066406 11.820312 6.066406 L 9.722656 6.066406 C 9.6875 6.066406 9.65625 6.046875 9.640625 6.015625 L 9.523438 5.808594 L 9.15625 6.203125 L 9.152344 6.203125 C 9.148438 6.207031 9.144531 6.210938 9.136719 6.214844 C 9.09375 6.246094 9.035156 6.234375 9.003906 6.1875 L 8.761719 5.816406 L 8.296875 6.601562 C 8.289062 6.621094 8.269531 6.636719 8.246094 6.648438 C 8.199219 6.667969 8.144531 6.640625 8.125 6.59375 L 7.613281 5.308594 L 7.328125 6 C 7.316406 6.039062 7.28125 6.066406 7.238281 6.066406 Z M 5.601562 6.066406 "/>
</g>
</svg>
